<svg width="543" height="273" viewBox="0 0 543 273" fill="none" xmlns="http://www.w3.org/2000/svg">
<rect x="273" y="273" width="273" height="273" transform="rotate(-90 273 273)" fill="#EE6C6C"/>
<path d="M273 273L273 6.10352e-05C423.774 5.44446e-05 546 122.226 546 273L273 273Z" fill="#FFA3B3"/>
<path d="M273 273C122.226 273 -0.000127413 150.774 -0.000134004 6.10352e-05L273 4.91019e-05L273 273Z" fill="#FFC464"/>
<path d="M273 272.998L273 204.748C310.693 204.748 341.25 235.304 341.25 272.998L273 272.998Z" fill="#A95094"/>
<path d="M273.001 204.75L273.001 136.5L341.251 136.5C341.251 174.193 310.694 204.75 273.001 204.75Z" fill="#A95094"/>
<path d="M341.251 273C341.251 235.307 371.808 204.75 409.501 204.75L409.501 273L341.251 273Z" fill="#A95094"/>
<path d="M409.501 204.75C371.808 204.75 341.251 174.193 341.251 136.5L409.501 136.5L409.501 204.75Z" fill="#A95094"/>
</svg>
