<svg width="406" height="812" viewBox="0 0 406 812" fill="none" xmlns="http://www.w3.org/2000/svg">
<rect x="406" y="406" width="406" height="406" transform="rotate(180 406 406)" fill="#EE6C6C"/>
<path d="M406 406L6.10352e-05 406L5.70137e-05 360C3.96321e-05 161.177 161.177 -3.96321e-05 360 -5.70137e-05L406 -6.10352e-05L406 406Z" fill="#FFA3B3"/>
<path d="M406 452C406 650.822 244.823 812 46.0002 812L0.000549316 812L0.000513823 406L406 406L406 452Z" fill="#FFC464"/>
<path d="M406 405.999L304.5 405.999L304.5 394.499C304.5 344.793 344.794 304.499 394.5 304.499L406 304.499L406 405.999Z" fill="#A95094"/>
<path d="M304.5 406L203 406L203 304.5L214.5 304.5C264.205 304.5 304.5 344.794 304.5 394.5L304.5 406Z" fill="#A95094"/>
<path d="M406 304.5L394.5 304.5C344.794 304.5 304.5 264.205 304.5 214.5L304.5 203L406 203L406 304.5Z" fill="#A95094"/>
<path d="M304.5 214.5C304.5 264.205 264.205 304.5 214.5 304.5L203 304.5L203 203L304.5 203L304.5 214.5Z" fill="#A95094"/>
</svg>
