<svg width="34" height="34" viewBox="0 0 34 34" fill="none" xmlns="http://www.w3.org/2000/svg">
<path d="M20.4641 4C18.9245 1.33334 15.0755 1.33333 13.5359 4L4.00962 20.5C2.47002 23.1667 4.39451 26.5 7.47372 26.5H26.5263C29.6055 26.5 31.53 23.1667 29.9904 20.5L20.4641 4Z" stroke="#FFC464" stroke-width="2"/>
<path d="M15.832 9.8H18.808L18.312 17.112H16.328L15.832 9.8ZM17.32 21.128C16.8827 21.128 16.5147 20.9893 16.216 20.712C15.928 20.424 15.784 20.0773 15.784 19.672C15.784 19.2667 15.928 18.9307 16.216 18.664C16.504 18.3867 16.872 18.248 17.32 18.248C17.768 18.248 18.136 18.3867 18.424 18.664C18.712 18.9307 18.856 19.2667 18.856 19.672C18.856 20.0773 18.7067 20.424 18.408 20.712C18.12 20.9893 17.7573 21.128 17.32 21.128Z" fill="#FFC464"/>
</svg>
