<svg width="1440" height="381" viewBox="0 0 1440 381" fill="none" xmlns="http://www.w3.org/2000/svg">
<rect width="360" height="381" fill="#EE6C6C"/>
<rect x="360" width="360" height="381" fill="#FFA3B3"/>
<path d="M0 360C0 161.177 161.177 0 360 0V381H0V360Z" fill="#FFC464"/>
<path d="M360 0H720V381C521.177 381 360 219.822 360 21V0Z" fill="#FD856D"/>
<rect x="1440" y="381" width="360" height="381" transform="rotate(180 1440 381)" fill="#EE6C6C"/>
<rect x="1080" y="381" width="360" height="381" transform="rotate(180 1080 381)" fill="#FFC464"/>
<path d="M1440 381L1080 381L1080 360C1080 161.178 1241.18 4.89131e-05 1440 3.05176e-05L1440 381Z" fill="#FFA3B3"/>
<path d="M1080 381C881.177 381 720 219.823 720 21L720 6.38257e-05L1080 3.05176e-05L1080 381Z" fill="#A284E8"/>
<path d="M1440 381L1350 381L1350 375.75C1350 326.044 1390.29 285.75 1440 285.75L1440 381Z" fill="#A95094"/>
<path d="M1350 381L1260 381L1260 285.75C1309.71 285.75 1350 326.044 1350 375.75L1350 381Z" fill="#A95094"/>
<path d="M1440 285.75C1390.29 285.75 1350 245.456 1350 195.75L1350 190.5L1440 190.5L1440 285.75Z" fill="#A95094"/>
<path d="M1350 195.75C1350 245.456 1309.71 285.75 1260 285.75L1260 190.5L1350 190.5L1350 195.75Z" fill="#A95094"/>
</svg>
