<svg width="450" height="673" viewBox="0 0 450 673" fill="none" xmlns="http://www.w3.org/2000/svg">
<rect width="448.5" height="448.5" transform="matrix(-1 0 0 1 449.25 224.5)" fill="#A284E8"/>
<path d="M449.25 584.5C449.25 385.678 288.072 224.5 89.25 224.5H0.75V673H449.25V584.5Z" fill="#FFC464"/>
<path d="M225 0.25H112.875V22.375C112.875 72.0806 153.169 112.375 202.875 112.375H225V0.25Z" fill="#EE6C6C"/>
<path d="M112.875 0.25H0.749928V112.375H22.875C72.5806 112.375 112.875 72.0806 112.875 22.375V0.25Z" fill="#EE6C6C"/>
<path d="M225 112.375H202.875C153.169 112.375 112.875 152.669 112.875 202.375V224.5H225V112.375Z" fill="#EE6C6C"/>
<path d="M112.875 202.375C112.875 152.669 72.5806 112.375 22.875 112.375H0.749928V224.5H112.875V202.375Z" fill="#EE6C6C"/>
</svg>
