<svg width="112" height="75" viewBox="0 0 112 75" fill="none" xmlns="http://www.w3.org/2000/svg">
<path d="M22.9839 37.5H89.5161V61C89.5161 68.732 83.2481 75 75.5161 75H36.9839C29.2519 75 22.9839 68.732 22.9839 61V37.5Z" fill="#FFBA4A"/>
<path d="M65.3228 42.3386H79.8389V61.5322C79.8389 64.2936 77.6003 66.5322 74.8389 66.5322H70.3227C67.5613 66.5322 65.3228 64.2936 65.3228 61.5322V42.3386Z" fill="#CA8CBB"/>
<path d="M38.7095 31.4517H53.2256V61.5323C53.2256 64.2937 50.987 66.5323 48.2256 66.5323H43.7095C40.948 66.5323 38.7095 64.2937 38.7095 61.5323V31.4517Z" fill="#A03C7D"/>
<circle cx="45.9677" cy="18.1452" r="16.9355" fill="#A03C7D"/>
<path d="M69.5567 13.4703V42.3386H75.6051V13.4703L77.4196 8.22158L75.6051 3.62891H69.5567L67.7422 8.22158L69.5567 13.4703Z" fill="#993280"/>
<path d="M45.9678 22.9839L39.9194 19.9597V1.20968V0.604839V0H51.4114V19.9597L45.9678 22.9839Z" fill="white"/>
<path fill-rule="evenodd" clip-rule="evenodd" d="M14.081 42.3386H0V56.4196H0.000102251V49.3795C3.87992 49.3795 7.02674 52.5177 7.04055 56.3943C7.05434 52.5261 10.1877 49.3929 14.056 49.3795C10.1878 49.3661 7.0545 46.2331 7.04055 42.365C7.02637 46.2412 3.87969 49.3792 0.000102251 49.3792V42.3387H7.0406V42.339H14.081V42.3386Z" fill="#EB5555"/>
<path fill-rule="evenodd" clip-rule="evenodd" d="M82.2578 22.1209C90.4534 22.1205 97.0996 15.4867 97.1199 7.29571C97.1402 15.4869 103.787 22.1208 111.983 22.1208V7.25806H111.983V36.9837H111.983V22.1212C103.774 22.1212 97.12 28.7753 97.1198 36.9837H97.1195C97.1193 28.7757 90.4657 22.1218 82.2578 22.1212V22.1209Z" fill="#EB5555"/>
</svg>
