<svg width="73" height="75" viewBox="0 0 73 75" fill="none" xmlns="http://www.w3.org/2000/svg">
<path fill-rule="evenodd" clip-rule="evenodd" d="M61.9565 0H61.9565V5.43505C64.9573 5.43505 67.39 7.867 67.3913 10.8675C67.3926 7.867 69.8253 5.43505 72.8261 5.43505C69.8285 5.43505 67.3977 3.0082 67.3913 0.0120896C67.3848 3.00808 64.9541 5.43478 61.9565 5.43478V0ZM67.3913 0V0.00026537H72.8261L72.8261 0H67.3913Z" fill="#EB5555"/>
<path fill-rule="evenodd" clip-rule="evenodd" d="M10.326 29.348V29.3479H0V39.6743C5.70256 39.6746 10.3253 44.2975 10.3255 50.0001H10.326C10.3261 44.2973 14.9492 39.6743 20.6521 39.6743V50.0001H20.6522V29.3479H20.6521V39.674C14.9676 39.674 10.3558 35.0806 10.3261 29.4031C10.2965 35.0807 5.68476 39.6741 0.000190046 39.6741V29.348H10.326Z" fill="#EB5555"/>
<path d="M2.17392 17.4348C2.17392 10.8074 7.5465 5.43481 14.1739 5.43481H52.1304C58.7579 5.43481 64.1304 10.8074 64.1304 17.4348V26.087H2.17392V17.4348Z" fill="#FFBA4A"/>
<path d="M28.2609 17.4348C28.2609 10.8074 33.6335 5.43481 40.2609 5.43481H52.1304C58.7578 5.43481 64.1304 10.8074 64.1304 17.4348V64.1305H28.2609V17.4348Z" fill="#FFBA4A"/>
<path d="M2.17392 17.4348C2.17392 10.8074 7.5465 5.43481 14.1739 5.43481H16.2609C22.8883 5.43481 28.2609 10.8074 28.2609 17.4348V26.087H2.17392V17.4348Z" fill="#C99035"/>
<rect x="36.9565" y="20.6521" width="33.6957" height="4.8913" fill="#993280"/>
<rect x="36.9565" y="30.4348" width="33.6957" height="4.8913" fill="#A03C7D"/>
<rect x="36.9565" y="40.2173" width="22.8261" height="4.8913" fill="#A03C7D"/>
<path d="M39.1304 74.9999V64.1304H47.8261V74.9999L43.4783 70.6521L39.1304 74.9999Z" fill="#993280"/>
<circle cx="43.4783" cy="59.7827" r="6.52174" fill="#EB5555"/>
</svg>
