<svg width="91" height="75" viewBox="0 0 91 75" fill="none" xmlns="http://www.w3.org/2000/svg">
<path d="M11.6379 54.0862C11.6379 46.3542 17.9059 40.0862 25.6379 40.0862H70.0517C77.7837 40.0862 84.0517 46.3542 84.0517 54.0862V75H11.6379V54.0862Z" fill="#FFBA4A"/>
<path fill-rule="evenodd" clip-rule="evenodd" d="M90.5195 29.7415H78.8793V41.3817H78.8795V35.5618C82.0861 35.5618 84.6871 38.1551 84.6996 41.3589C84.712 38.1552 87.3129 35.5619 90.5195 35.5618V35.5618C87.3052 35.5617 84.6995 32.956 84.6995 29.7417H90.5195V29.7415ZM84.6995 29.7417C84.6994 32.956 82.0937 35.5616 78.8794 35.5616V29.7415H84.6995L84.6995 29.7417Z" fill="#EB5555"/>
<path fill-rule="evenodd" clip-rule="evenodd" d="M12.2859 11.6379C12.2859 18.4236 17.7868 23.9245 24.5725 23.9245V11.6379H24.5732V36.2111H24.5725V23.9247C17.7869 23.9247 12.286 29.4255 12.2859 36.2111H12.2857C12.2855 29.4258 6.78519 23.9253 0 23.9247L0 23.9246C6.78535 23.9242 12.2858 18.4234 12.2858 11.638H0V11.6379H12.2859Z" fill="#EB5555"/>
<circle cx="48.4914" cy="17.4569" r="17.4569" fill="#FFBA4A"/>
<rect x="27.1551" y="62.0691" width="41.3793" height="12.931" fill="#A03C7D"/>
<rect x="62.069" y="40.0862" width="6.46552" height="34.9138" fill="#A03C7D"/>
<rect x="27.1551" y="40.0862" width="6.46552" height="34.9138" fill="#A03C7D"/>
</svg>
