<svg width="370" height="370" viewBox="0 0 370 370" fill="none" xmlns="http://www.w3.org/2000/svg">
<rect x="185" width="185" height="185" transform="rotate(90 185 0)" fill="#EE6C6C"/>
<rect x="185" y="185" width="185" height="185" transform="rotate(90 185 185)" fill="#FFC464"/>
<path d="M185 0L185 185C82.8273 185 -4.46611e-06 102.173 0 -8.08661e-06L185 0Z" fill="#FFA3B3"/>
<path d="M185 185C185 287.173 102.173 370 -8.08661e-06 370L0 185L185 185Z" fill="#A284E8"/>
<rect x="370" width="185" height="185" transform="rotate(90 370 0)" fill="#EE6C6C"/>
<rect x="370" y="185" width="185" height="185" transform="rotate(90 370 185)" fill="#FFA3B3"/>
<path d="M185 -8.08661e-06C287.173 -3.6205e-06 370 82.8273 370 185L185 185L185 -8.08661e-06Z" fill="#FFC464"/>
<path d="M370 185L370 370L185 370C185 267.827 267.827 185 370 185Z" fill="#FD856D"/>
<path d="M185 0L185 46.25C159.457 46.25 138.75 25.5432 138.75 -2.02165e-06L185 0Z" fill="#A95094"/>
<path d="M185 46.25L185 92.5L138.75 92.5C138.75 66.9569 159.457 46.25 185 46.25Z" fill="#A95094"/>
<path d="M138.75 0C138.75 25.5432 118.043 46.25 92.5 46.25L92.5 -2.02165e-06L138.75 0Z" fill="#A95094"/>
<path d="M92.5 46.25C118.043 46.25 138.75 66.9569 138.75 92.5L92.5 92.5L92.5 46.25Z" fill="#A95094"/>
</svg>
