<svg width="26" height="25" viewBox="0 0 26 25" fill="none" xmlns="http://www.w3.org/2000/svg">
<path d="M21.8661 9.68178C21.2871 7.44184 19.9494 5.47194 18.0809 4.10773C16.2123 2.74352 13.9286 2.0694 11.6187 2.20025C9.30889 2.33109 7.11586 3.25879 5.41333 4.82529C3.7108 6.39179 2.6041 8.50015 2.2818 10.7911C1.9595 13.0821 2.44154 15.414 3.64579 17.3894C4.85003 19.3649 6.70198 20.8616 8.88607 21.6247C11.0702 22.3877 13.4513 22.3699 15.6237 21.5742C17.7961 20.7784 19.6254 19.2541 20.7999 17.2608L19.2021 16.3193C18.2454 17.9429 16.7554 19.1846 14.9858 19.8328C13.2163 20.4809 11.2768 20.4955 9.49774 19.8739C7.7187 19.2524 6.2102 18.0332 5.22929 16.4241C4.24837 14.815 3.85573 12.9156 4.11825 11.0495C4.38078 9.18338 5.28224 7.46602 6.66903 6.19004C8.05582 4.91406 9.84214 4.1584 11.7236 4.05182C13.6051 3.94524 15.4653 4.49434 16.9873 5.60555C18.5094 6.71676 19.599 8.32134 20.0706 10.1459L21.8661 9.68178Z" fill="#96317D"/>
<path d="M14.1279 8.02246L20.8234 10.2965L23.0974 3.60104" stroke="#96317D" stroke-width="2"/>
</svg>
